<?xml version="1.0" encoding="utf-8"?>
<!-- Generator: Adobe Illustrator 26.0.3, SVG Export Plug-In . SVG Version: 6.00 Build 0)  -->
<svg version="1.1" id="Layer_1" xmlns="http://www.w3.org/2000/svg" xmlns:xlink="http://www.w3.org/1999/xlink" x="0px" y="0px"
	 viewBox="0 0 595.28 841.89" style="enable-background:new 0 0 595.28 841.89;" xml:space="preserve">
<style type="text/css">
	.st0{fill:#040304;}
	.st1{fill:#F29D9C;}
	.st2{fill:#D8281C;}
	.st3{fill:#926A5F;}
	.st4{fill:#DC8C85;}
	.st5{fill:#92695F;}
	.st6{fill:#F8F7F8;}
	.st7{fill:#946E65;}
	.st8{fill:#B42921;}
	.st9{fill:#D18F8F;}
	.st10{fill:#212120;}
	.st11{fill:#222120;}
	.st12{fill:#DA8C83;}
	.st13{fill:#FFFFFF;}
	.st14{fill:#FFFEFE;}
	.st15{fill:#0E0808;}
	.st16{fill:#DD8C85;}
	.st17{fill:#DC8C84;}
	.st18{fill:#0D0909;}
	.st19{fill:#DA8B83;}
	.st20{fill:#DA8C85;}
	.st21{fill:#F5F4F4;}
	.st22{fill:#F8F8F9;}
</style>
<g>
	<path class="st0" d="M269.01,575.18c-0.24-3.33,0.23-7.8,0.83-12.26c0.36-2.68-0.56-3.65-3.31-2.89
		c-10.14,2.81-19.77,2.15-28.43-4.51c-2.48-1.91-4.47,0.17-6.34,1.16c-17.06,9-35.16,10.58-53.75,7.09
		c-7.7-1.44-14.87-5-20.68-10.46c-4.15-3.9-8.37-6.08-14.4-6.16c-14.96-0.19-25.54-9.22-35.33-19.28c-4.18-4.3-8.36-8.6-12.32-13.09
		c-8.76-9.92-12.37-21.85-12.65-34.82c-0.07-3.55-1.53-5.33-4.25-7.06c-12.43-7.92-21.9-18.63-26.95-32.43
		c-5.74-15.68-2.43-31.14,3.65-46.08c2.13-5.22,4.45-10.44,7.84-15c1.55-2.08,1.5-3.39,0.04-5.59c-7.3-10.96-9.74-23.22-8.29-36.16
		c1.08-9.63,7.52-16.43,13.68-23.21c1.27-1.4,2.39-2.53,2.41-4.63c0.24-29.65,21.82-48.78,43.93-56.14c1.88-0.63,3.6-1.25,4.77-3.22
		c10.38-17.41,26.77-25.57,45.84-29.73c8.62-1.88,17.22-3.26,26.08-3.09c10.97,0.21,10.99,0.1,20.9-4.83
		c7.8-3.88,16.32-4.54,24.75-4.97c11.63-0.6,23.27-0.12,34.85,1.4c0.33,0.04,0.72,0,0.98,0.16c7.94,5,13.92,0.28,20.57-3.52
		c20.19-11.55,41.02-11.67,62.06-2.12c0.45,0.21,1,0.36,1.31,0.71c5.44,6.28,12.27,5.45,19.73,5.02
		c21.55-1.25,42.34,2.15,61.77,12.35c9.37,4.92,16.99,11.59,23.11,20.08c1.25,1.74,2.47,2.66,4.82,2.7
		c17.08,0.27,29.3,9.16,39.11,22.31c8.11,10.87,12.76,22.85,12.22,36.59c-0.04,1.13-0.2,2.38,0.98,3.16
		c10.48,6.99,13.71,18.35,17.48,29.3c3.41,9.89,6.84,19.82,6.35,30.55c-0.1,2.24,0.26,3.73,3.41,4.14
		c12.46,1.64,26.96,14.99,20.95,32.74c-0.69,2.05-1.09,4.41-2.4,5.99c-8.94,10.88-14.81,23.68-22.48,35.34
		c-0.76,1.16-1.35,1.95-0.99,3.52c4.79,21.14-9.8,41.28-31.22,43.22c-1.58,0.14-3.28-0.39-3.42,2.29
		c-0.63,11.73-8.54,18.17-18.08,22.31c-9.77,4.23-20.35,6.88-31.08,6.11c-5.64-0.41-10.18-0.41-14.21,4.07
		c-2.07,2.3-6.97,2.12-7.71,4.88c-0.68,2.54,1.79,5.8,2.43,8.84c1.46,6.98,3.02,13.98,3.81,21.05c0.41,3.66,2.15,4.33,5.07,4.62
		c5.8,0.57,11.57,1.33,17.37,1.89c3.96,0.38,6.38,2.44,6.12,6.39c-0.26,3.93-2.91,5.9-6.89,5.51c-8.6-0.83-17.24-1.43-25.73-3.23
		c-4.04-0.86-6.06-3.1-6.89-7.35c-1.87-9.6-2.77-19.37-5.39-28.86c-1.19-4.33-3-4.99-6.98-3.84c-8.07,2.32-16.29,3.3-24.58,0.83
		c-0.32-0.09-0.75-0.01-0.97-0.19c-5.77-4.81-9.41-0.73-14.18,2.47c-13.92,9.33-29.71,13.71-46.32,15.44
		c-9.5,0.99-18.19-0.44-25.57-6.94c-1.14-1-1.86-0.81-2.84,0.33c-4.6,5.32-11.07,7.21-17.52,8.77c-3.21,0.78-4.29,2.06-4.22,5.28
		c0.1,4.48-0.31,8.98-0.54,13.47c-0.11,2.02,0.17,3.35,2.67,3.87c9.26,1.9,18.25,5.06,27.79,5.72c3.83,0.26,6.25,2.29,6.12,6.41
		c-0.11,3.54-3.24,5.84-7.49,5.54c-6.17-0.44-12.16-1.92-18.17-3.28c-5.35-1.21-10.62-2.71-16.07-3.53
		c-6.46-0.98-7.22-2.19-7.17-8.96C269.02,579.69,269.01,578.03,269.01,575.18z"/>
	<path class="st1" d="M538.66,440.48c-2.65,1.91-4.33,4.37-2.97,7.66c4.72,11.42-0.7,20.35-7.13,28.88
		c-4.94,6.55-11.66,9.29-20.07,8.91c-7.38-0.33-7.03,0.16-6.97,7.49c0.06,7.46-4.88,12.6-10.74,15.79
		c-10.51,5.72-22.15,7.81-34.12,7.63c-2.38-0.04-4.41-1.29-6.2-2.92c-1.39-1.27-3.59-1.83-4.14,0.21c-2.18,8-9.18,10.42-15.42,13.03
		c-11.05,4.62-22.52,8.08-34.85,5.44c-3.77-0.8-6.96-2.29-8.93-5.72c-0.75-1.31-1.63-2.1-3.16-1.77c-1.25,0.27-1.9,1.03-2.11,2.41
		c-0.63,4.23-3.79,6.59-7.07,8.54c-12.47,7.4-26.05,11.63-40.38,13.57c-6.16,0.84-12.15,1.14-18.06-1.7
		c-3.41-1.63-6.28-3.7-8.75-6.45c-2.48-2.77-4.38-3.19-6.2,0.84c-3.25,7.16-10.5,8.61-16.97,10.01c-9.39,2.03-19.05,2.79-28.61,4
		c-5.28,0.67-9.84-1.11-13.78-4.57c-3.08-2.71-5.95-3.29-9.83-0.89c-16.27,10.05-34.25,11.64-52.48,8.36
		c-9.29-1.67-17.39-7.16-24.01-14.19c-1.21-1.28-2.23-2.4-4.12-2.2c-6.45,0.68-12.41-2.06-18.67-2.76c-1.9-0.21-3.89-1.12-5.5-2.22
		c-10.96-7.45-19.99-16.97-28.78-26.79c-8.81-9.84-10.65-21.86-11.29-34.28c-0.17-3.29-1.56-5.09-4.27-6.63
		c-10.71-6.11-18.66-15.07-24.61-25.64c-7.71-13.69-5.49-28.17-1.21-42.17c2.6-8.51,6.34-16.83,12.46-23.69
		c1.97-2.21,1.07-4.24-0.29-6.34c-13.05-20.1-11.06-39.19,5.97-56.65c1.64-1.68,2.64-3.37,2.3-5.71
		c-3.52-24.24,19.29-47.05,41.69-52.55c2.77-0.68,4.09-1.85,5.27-4.4c6.25-13.56,18.06-20.48,31.53-24.74
		c15-4.75,30.26-8.2,46.09-3.93c1.42,0.38,2.74,0.19,3.67-0.9c7.29-8.59,17.64-9.33,27.67-10.63c12.64-1.64,25.27-0.05,37.81,1.32
		c9.63,1.05,16.45,0.92,24.91-4c15.54-9.03,31.74-10.14,48.68-5.44c5.85,1.62,11.47,4,15.19,9c1.94,2.61,3.84,2.31,6.46,1.92
		c29.09-4.36,56.27,0.01,80.49,17.83c4.66,3.43,7.88,8.1,11.2,12.64c1.67,2.28,3.33,3.47,6.11,3.36
		c15.2-0.61,26.36,6.93,35.37,18.19c8.67,10.82,14.02,22.95,12.8,37.27c-0.15,1.75-0.59,3.94,1.59,4.84
		c6.3,2.58,9.23,8.16,11.65,13.75c6.01,13.89,11.63,27.93,11.78,43.49c0.06,6.14-0.58,11.94-3.81,17.27
		c-1.66,2.73-1.27,4.93,1.55,6.77c7.43,4.86,9.38,12.52,10.36,20.66c0.22,1.83-0.41,3.16-1.76,4.38
		c-5.88,5.29-12.13,9.71-20.21,11.23c-20.29,3.82-40.57,7.61-61.38,6.28c-1.61-0.1-3.87,0.71-4.61-0.94
		c-0.78-1.73,1.47-2.71,2.57-3.74c23.05-21.47,21.76-62.12,2.85-84.41c-13.73-16.18-41.41-23.48-63.79-16.64
		c-13.47,4.11-24.89,10.93-32.4,23.37c-2.97,4.92-4.24-0.79-6.35-1.36c-1.94-1.44-3.05-3.32-3.72-5.69
		c-4.71-16.65-11.65-32.24-22.61-45.81c-3.27-4.05-3.05-8.54-2.33-13.28c3.21-21.19-3.79-39.03-18.46-54.06
		c-4.85-4.97-11.1-7.95-18.37-10.46c1,3.09,2.97,3.45,4.56,4.14c10.53,4.63,17.89,12.42,23.22,22.46c4.35,8.2,7.26,16.74,7.92,26.06
		c0.28,4.05-0.08,7.95-1.06,11.87c-1.36,5.39-0.79,10.07,2.96,14.89c8.5,10.95,15.48,22.89,19.39,36.37
		c0.56,1.92,1.26,3.82,1.33,5.83c0.1,2.69-1.12,3.71-3.74,2.55c-17.15-6.92-34.87-7.85-52.94-4.96c-8.79,1.25-17.4,3.07-25.03,7.95
		l0,0c-11.66,6.09-20.15,15.44-27.01,26.42c-3.13,5.02-4.9,10.47-4.71,16.5c0.26,8.26-0.42,16.52,1.73,24.73
		c2.58,9.88,7.2,18.46,13.92,26.07c1.7,1.93,4.55,3.72,3,7.15c-25.06,7.55-50.37,13.64-76.84,12.34
		c-12.39-0.61-24.7-1.74-36.17-7.09c-0.81-1.14-2.36-1.64-2.73-3.16c-1.39-3.99,1.93-7.01,2.57-10.85c-4.02,0.74-3.22,6.27-7.3,6.34
		c-5.93-2.61-7.27-7.87-7.22-13.49c0.07-7.55,2.58-14.23,8.7-19.15c2.17-1.79,4.52-3.41,6.48-5.4c2.24-2.28,2.47-5.1,0.56-7.72
		c-1.88-2.57-4.7-3.67-7.45-1.9c-8.66,5.58-17.18,11.28-20.99,21.75c-2.74,7.54-2.82,14.89-0.46,22.42
		c3.02,9.56,8.94,16.77,17.62,21.76c0.86,0.49,1.59,1.18,2.29,1.89c1.83,1.73,2.12,4.01,2.45,6.36
		c2.39,17.19,12.37,24.7,29.52,22.11c3.97-0.6,6.27-0.05,7.81,4.44c7.27,21.25,33.45,31.62,53.4,11.46
		c4.2-4.24,8.2-8.75,11.35-13.89c0.82-1.34,2.3-2.46,1.62-4.79c-2.81,1.6-4.18,4.21-5.85,6.55c-4.44,6.26-9.14,12.09-15.94,16.21
		c-14.83,8.98-32.69,3.49-40.93-12.56c-1.32-2.56-2.04-5.28-1.88-8.18c0.21-3.71-1.76-4.55-4.68-3.16
		c-3.91,1.86-7.96,2.2-12.16,2.06c-9.59-0.31-17.9-7.56-19.35-16.97c-0.31-1.99-0.72-4.07,1.85-5.03c1.93-0.32,3.56,0.63,5.28,1.23
		c19.19,6.65,38.86,8.57,59.03,6.45c6.11-0.64,12.25-0.99,18.37-1.62c16.6-1.7,32.14-6.94,47.18-13.88
		c2.96-1.36,5.66-1.86,8.35,0.43c12.27,10.47,27.55,15.22,41.66,22.25c17.37,8.65,36.08,12.29,54.54,17.25
		c8.4,2.26,13.03-0.1,18.48-5.71c14.5-14.91,28.99-29.81,42.74-45.42c1.73-1.97,3.59-3.5,6.31-3.5c6.15,0,12.28-0.34,18.44,0.44
		c10.48,1.34,20.91,0.11,31.33-1.07c13.78-1.56,27.2-4.54,40.04-9.91C538.23,438.1,539.63,438.42,538.66,440.48z"/>
	<path class="st2" d="M423.8,451.77c-11.73,11.82-22.94,24.09-32.96,37.41c-1.4,1.86-2.92,1.73-4.83,1.08
		c-30.54-10.38-60.96-21.07-89.49-36.39c-1.45-0.78-2.82-1.7-4.4-2.66c2.5-2.74,5-2.99,8.19-1.77c4.07,1.56,7.89,3.52,11.68,5.61
		c1.87,1.03,3.86,2.05,5.93,2.47c3.2,0.65,5.59-0.97,6.65-3.96c1.07-3.02,0.02-5.63-2.71-7.33c-2.81-1.76-5.75-3.33-8.66-5
		c0.48-2.33,2.42-2.83,3.91-3.65c6.6-3.6,12.54-8.16,18.63-12.5c3.35-2.39,4.32-5.55,2.33-9.12c-1.73-3.09-6.18-3.57-9.77-1
		c-6.21,4.45-12.41,8.9-19.04,12.72c-1.29,0.74-2.71,1.99-4.02,0.98c-1.12-0.86-0.21-2.51,0.08-3.77c0.36-1.62,0.96-3.19,1.3-4.82
		c0.75-3.57-0.37-6.52-4-7.44c-3.45-0.87-6.84-0.2-7.96,3.95c-1.47,5.45-2.96,10.91-3.98,16.45c-1.3,7.07-11.12,11.21-16.75,6.64
		c-16.95-13.76-26.28-31.17-24.23-53.45c0.73-7.92,4.41-14.84,9.68-20.94c9.91-11.47,22.58-17.57,37.25-20.43
		c18.66-3.63,36.66-2.38,54.07,5.64c4.8,2.21,8.82,5.27,12.31,9.15c2.82,3.13,5.58,2.73,6.85-1.02
		c10.64-31.22,60.23-37.68,85.24-15.74c9.7,8.51,15.15,19.5,16.79,32c2,15.25,1.34,30.3-8.78,43.27
		c-4.23,5.42-9.22,10.06-14.82,13.97c-4.57,3.19-11.35,0.08-12.28-5.26c-0.62-3.6-1.36-7.18-2.27-10.72
		c-1.01-3.93-3.61-6.18-7.73-5.22c-4.12,0.97-5.26,4.09-4.6,8.11c0.34,2.05,2.54,4.6,0.67,6.02c-2.01,1.52-4.17-1.1-6.23-1.97
		c-3.52-1.48-6.94-3.22-10.48-4.66c-3.7-1.5-6.79-0.25-8.28,3.27c-1.43,3.38,0.13,6.18,3.38,7.85c3.85,1.98,7.68,4.02,11.64,5.73
		c3.11,1.35,2.42,2.55,0.26,4.02c-1.51,1.03-3.04,2.03-4.58,3.03c-2.83,1.83-5.01,4.06-4.01,7.79c1.09,4.06,4.27,4.67,7.86,4.44
		c4.28-1.37,7.4-4.65,11.24-6.75c1.49-0.81,3.08-3.03,4.58-1.09c1.27,1.64-1.26,2.56-2.18,3.75
		C424.89,450.99,424.23,451.26,423.8,451.77z"/>
	<path class="st3" d="M136.84,466.63c-8.95-4.84-15.62-11.66-18.74-21.55c-0.24-0.76-0.18-1.6-0.26-2.41
		c5.05,10.55,12.42,18.78,23.52,23.14c10.6,4.16,21.71,5.93,33.01,6.9c36.65,3.16,71.11-6.74,105.37-17.69
		c3.78-1.21,6.8-1.2,10.32,0.79c26.04,14.65,53.85,25.18,82.05,34.76c4.88,1.66,9.75,3.35,14.53,5.26c2.9,1.16,4.78,0.88,6.73-1.91
		c8.51-12.13,18.27-23.24,28.63-33.82c1.05-1.07,2.33-1.94,3.23-3.11c8.05-10.44,18.78-12.31,31.29-11.32
		c23.18,1.83,46.05-1.5,68.74-6.16c6.23-1.28,12.24-3.02,17.74-7c0.86,2.42,0.08,3.83-1.37,5.06c-1.72,0.09-3.4,0.41-5,1.06
		c-14.08,7.59-29.68,8.87-45.1,11.21c-14.5,2.2-28.87-0.64-43.3-0.11c-2.87,0.1-4.76,0.9-6.76,3.17
		c-15.87,17.94-32.17,35.48-49.55,51.98c-1.58,1.5-3.18,2.36-5.36,1.56c-9.23-3.36-18.91-5.12-28.46-7.03
		c-14.92-2.98-27.9-10.57-41.79-15.98c-12.46-4.85-24.32-10.78-34.65-19.4c-1.75-1.46-3.2-1.17-4.98-0.28
		c-20.88,10.32-43.08,14.72-66.24,16.31c-19.48,1.34-38.47,0.54-57.1-5.45c-2.84-0.91-5.6-2.08-8.4-3.13
		C141.26,471.5,139.48,468.35,136.84,466.63z"/>
	<path class="st4" d="M349.76,344.72c1.78-0.12,3.35-0.22,2.6-2.88c-3-10.58-6.55-20.92-13-29.97c-3.55-4.98-6.63-10.25-10.55-15.02
		c-2.45-2.97-1.57-7.45-0.48-11.07c6.19-20.56-9.71-53.32-29.43-60.14c-2.29-0.79-7.33-1.38-5.39-5.34
		c1.43-2.93,4.91-0.04,7.32,0.98c18.98,8.03,27.45,24.45,32.52,42.76c1.88,6.78,1.15,14.56-0.15,21.81
		c-0.8,4.45-0.67,8.47,2.41,12.15c11.49,13.74,18.12,29.91,22.94,46.91c0.52,1.82,1.56,3.24,2.14,4.94
		C357.04,348.13,353.4,346.43,349.76,344.72z"/>
	<path class="st5" d="M258.71,448.57c-1.09-4.82-5.27-7.46-7.99-11.09c-12.04-16.02-14.08-34.36-11.28-53.14
		c1.85-12.43,10.77-21.46,20.12-29.44c3.6-3.08,7.22-6.4,12.23-7.2c-5.54,4.94-12.06,8.78-16.77,14.65
		c-15.87,19.77-13.64,42.08-0.79,63.08c4.42,7.23,10.29,13.43,17.37,19.01C267.26,446.57,262.97,447.53,258.71,448.57z"/>
	<path class="st6" d="M550.65,407.73c-0.97-8.41-5.25-14.68-11.24-19.89c-0.95-0.83-0.97-1.56-0.55-2.57
		c0.62-1.51,1.73-1.69,3.22-1.49c5.5,0.74,10.9,1.49,13.27,7.7C557.04,395.92,555.29,402.71,550.65,407.73z"/>
	<path class="st7" d="M143.81,450.65c0.45,1.16,2.05,1.64,1.88,3.17c-9.99-3.89-17.1-13.1-17.02-22.28
		c0.07-8.17,4-14.07,11.04-18.03c-4.13,5.72-7.58,11.76-7.52,19.06c0.04,5.36,1.62,10.16,6.51,13.24
		C141.4,446.37,142.56,448.56,143.81,450.65z"/>
	<path class="st8" d="M423.8,451.77c1.12-1.52,2.24-3.04,3.85-5.23c-6.57,1.46-9.84,7.71-16.02,8.03
		c5.49-3.59,10.98-7.18,16.47-10.77c1.27-0.83,2.93-1.91,3.99-0.55c1.31,1.69-0.88,2.5-1.85,3.34
		C428.16,448.39,426.72,451.01,423.8,451.77z"/>
	<path class="st5" d="M271.79,347.7c7.38-5.69,15.89-7.8,25.03-7.95C288.32,341.92,279.87,344.22,271.79,347.7z"/>
	<path class="st9" d="M536.65,438.62c3.65-2.76,3.65-2.76,5-1.06c-0.91,1.06-1.34,2.61-2.99,2.92
		C538.63,439.18,537.81,438.71,536.65,438.62z"/>
	<path class="st10" d="M317.87,305.8c3.08,4.37,2.84,10.24,6.48,14.39c0.67,0.76,0.69,1.86-0.11,2.73
		c-0.66,0.72-1.45,0.58-2.29,0.34c-20.07-5.77-39.01-0.06-57.93,5.73c-3.47,1.06-6.84,2.45-10.26,3.69
		c-0.48-0.47-0.97-1.05-0.91-1.7c0.56-6.08,2.32-11.72,6.28-16.51c2.32,0.85,0.97,2.8,1.2,4.24c0.5,3.17,2.39,4.68,5.46,4.45
		c2.6-0.2,4.43-1.76,4.34-4.47c-0.11-3.15-2.07-4.68-5.26-4.56c-1.44,0.05-2.94,0.72-4.29-0.38c0.16-6.18,4.73-9.23,9.06-12.21
		c3.41-2.35,7.3-4.07,11.36-5c4.98-1.14,9.59-2.77,12.89-6.95c1.15,1.19,1.01,2.74,1.18,4.21c0.75,6.38,6.61,12.4,12.89,13.3
		c1.89,0.27,3.59-0.25,5.33-0.87C314.76,305.69,316.21,304.3,317.87,305.8z"/>
	<path class="st11" d="M445.89,301.64c2.63,4.47,2.08,10.61,7.27,13.75c0.53,0.32,0.92,1.04,0.51,1.74c-0.77,1.31-2,0.85-3.1,0.68
		c-12.84-1.99-25.81-2.04-38.75-2.27c-8.12-0.14-16.21,0.87-24.23,2.28c-1.59,0.28-3.36,1.07-4.57-0.7
		c-1.11-1.63-0.42-3.16,0.66-4.55c1.44,1.54,2.76,2.31,4.15-0.16c1.21-2.17,2.81-4.1,4.37-6.04c6.18-7.69,13.34-13.86,23.61-15.24
		c1.47-0.2,2.93-0.61,4.32-1.14c1.22-0.46,2.86-0.85,2.55-2.53c-0.32-1.69-2.06-1.26-3.31-1.45c-3.01-0.45-6.33,1.05-9-1.47
		c5.54-1.07,11.09-2.17,16.47,0.68c0.43,0.54,0.54,1.16,0.53,1.84c-0.16,9.33,5.37,14.58,14.76,13.96
		C443.45,300.93,444.77,300.64,445.89,301.64z"/>
	<path class="st12" d="M136.84,466.63c3.11,0.93,5.42,3.21,8.12,4.84c-0.91,0.66-1.21,1.6-1.03,2.64
		c2.48,14.57,14.35,21.22,28.65,16.05c7.11-2.58,7.42-2.51,7.88,4.8c0.54,8.5,6.01,14.29,12.66,18.74
		c13.02,8.71,29.19,2.99,38.38-8.6c3.48-4.38,6.62-9.02,9.98-13.5c1.02-1.36,2.32-2.64,4.19-1.34c1.54,1.07,0.74,2.45,0.03,3.52
		c-7.57,11.33-15.06,22.67-28.97,27.43c-18.55,6.34-36.11-6.75-40.59-21.84c-1.23-4.14-2.94-3.98-5.9-3.4
		c-8.35,1.63-16.03,0.74-22.94-4.96c-5.92-4.88-7.41-11.54-8.36-18.44C138.63,470.32,138.09,468.42,136.84,466.63z"/>
	<path class="st13" d="M317.87,305.8c-6.81,3.88-12.99,3.24-19.02-1.95c-4.52-3.88-6.07-8.46-5.08-14.13
		c0.05-0.58,0.65-0.75,0.9-1.19c5.95-9.96,19.2-12.11,25.98-4.21c4.17,4.86,4.17,12.57-0.01,17.99
		C319.74,303.49,318.8,304.64,317.87,305.8z"/>
	<path class="st14" d="M445.89,301.64c-5.61,1.62-10.79,0.97-15.41-2.83c-4.96-4.09-5.83-7.31-3.65-13.6
		c4.13-9.21,16.94-12.79,25.78-2.43c1.17,0.76,1.17,1.89,0.98,3.08C454.99,293.06,451.48,297.86,445.89,301.64z"/>
	<path class="st15" d="M294.68,288.53c-0.3,0.4-0.6,0.79-0.9,1.19c-1.07,4.94-4.83,6-9.15,7.13c-9.99,2.63-19.67,6.06-23.75,17.07
		c-0.07,0.52-0.37,0.81-0.89,0.87c-2.99,5.65-6.13,11.24-6.21,17.89c-2.85,1.02-6.26,1.98-5.69-2.74
		c2.3-19.19,6.82-32.87,28.05-41.01C282.11,286.64,288.46,287.03,294.68,288.53z"/>
	<path class="st16" d="M161.86,335c-0.76,4.23,0.8,7.85,2.8,11.4c0.87,1.55,2.18,3.58-0.21,4.71c-1.99,0.94-2.76-1.18-3.65-2.52
		c-9.76-14.66-1.65-31.5,12.62-38.56c1.72-0.85,3.14-1.3,3.44-3.61c1.54-11.58,8.2-18.82,19.12-21.81c7.09-1.94,13.44-0.48,19.58,3
		c1.73,0.98,3.97,2.09,2.83,4.49c-1.32,2.78-3.71,0.89-5.15,0.11c-13.74-7.48-20.06-2.26-27.05,3.71
		c-4.81,4.11-5.67,9.63-2.95,15.33c0.76,1.6,2.57,3.07,0.5,4.77c-1.76,1.44-3.09,0.02-4.27-1.17c-1.48-1.49-2.96-1.06-4.53-0.21
		c-5.76,3.12-9.59,8.04-12.87,13.53C160.69,330.48,162.32,332.77,161.86,335z"/>
	<path class="st17" d="M491.65,298.53c-0.37,2.18-0.68,3.8-0.92,5.43c-1.8,12.43,3.96,20.42,14.58,26.16
		c6.08,3.29,12.33,7.23,14.37,14.44c2.07,7.3,1.97,14.75-1.69,21.8c-0.65,1.26-1.04,2.6-2.74,2.17c-2.08-0.53-1.71-2.33-1.36-3.69
		c0.95-3.7,1.49-7.41,1.94-11.21c1.07-9.09-3.59-14.41-10.86-18.23c-5.07-2.66-9.36-6.25-13.34-10.26
		c-5.83-5.89-8.15-18.54-4.89-26.12c0.69-1.61,1.56-3.18,3.47-3.05C492.15,296.09,491.61,297.85,491.65,298.53z"/>
	<path class="st18" d="M410.37,284.53c3.66,0.07,7.31,0.12,10.97,0.21c1.47,0.04,3.16-0.22,3.31,2.01c0.12,1.78-0.17,3.35-2.22,3.91
		c-1.44,0.39-2.86,0.94-4.32,1.12c-14.06,1.73-22.46,11.08-29.75,21.97c-0.76,1.13-0.65,3.21-2.85,2.84
		c-2.53-0.43-1.4-2.59-1.83-4.02C388.63,299.46,395.14,287.85,410.37,284.53z"/>
	<path class="st19" d="M332.18,515.62c-8.14,0.59-14.41-3.23-20.73-6.31c-7.33-3.57-14.29-6.46-21.62-0.35
		c-1.01,0.84-2.15,0.82-3.16-0.12c-1.16-1.09-0.5-2.21,0.15-3.14c1.76-2.56,4.37-4.56,7.25-4.83c5.04-0.47,10.16-0.93,15.07,1.79
		c4.9,2.72,10.26,4.61,15.33,7.04c7.82,3.75,14.49,0.46,20.99-3.37c1.98-1.17,3.95-2.91,5.52-0.52c1.49,2.26-1.23,3.57-2.73,4.46
		C343.13,513.3,338.05,516.73,332.18,515.62z"/>
	<path class="st12" d="M453.6,285.86c-1.16-0.76-0.76-2.02-0.98-3.08c-1.31-6.22-5.21-10.89-10.05-14.38
		c-7.46-5.39-15.58-9.55-25.36-8.76c-2.96,0.24-7.73,0.9-7.67-3.04c0.05-3.44,4.69-1.78,7.23-1.8c18.31-0.1,31.65,8.22,40.13,24.37
		c1.23,2.35,2.05,4.9,1.88,7.66c-0.1,1.55-0.12,3.23-1.97,3.57c-2.48,0.45-1.79-1.7-2.17-2.99
		C454.46,286.85,453.95,286.38,453.6,285.86z"/>
	<path class="st16" d="M454.32,494.56c-2.69,0.15-4.52-0.36-4.82-2.18c-0.31-1.86,1.87-2.3,3.09-2.6
		c9.13-2.23,14.2-8.48,17.21-16.87c0.59-1.64,1.63-2.67,3.36-1.85c1.87,0.88,1.8,2.62,1.17,4.3c-2.9,7.71-7.73,13.75-15.31,17.32
		C457.24,493.51,455.37,494.15,454.32,494.56z"/>
	<path class="st20" d="M143.81,450.65c-2.1-1.19-3.63-2.99-5.11-4.84c1.85-1.58,2.2-4.07,3.58-5.92c1-1.34,2.18-2.86,4.1-1.79
		c2.25,1.26,0.91,3.01-0.03,4.21C144.4,444.81,143.49,447.51,143.81,450.65z"/>
	<path class="st21" d="M259.98,314.79c0.3-0.29,0.59-0.58,0.89-0.87c0.93-0.32,1.85-0.75,2.81-0.93c3.22-0.62,5.93,0.07,7.49,3.29
		c1.27,2.61,0.55,4.9-1.46,6.73c-2.32,2.12-5.08,2.41-7.8,0.85c-2.81-1.61-3.68-4.11-2.61-7.21
		C259.52,316.01,259.76,315.4,259.98,314.79z"/>
	<path class="st22" d="M410.77,307.12c-0.36,3.35-1.84,5.81-5.48,5.85c-3.59,0.04-6.17-1.75-6.32-5.57c-0.15-3.73,2.07-6,5.72-6.19
		C408.54,301.01,410.16,303.65,410.77,307.12z"/>
</g>
</svg>
